<svg width="77" height="64" viewBox="0 0 77 64" fill="none" xmlns="http://www.w3.org/2000/svg">
<circle cx="24" cy="23.5" r="23.5" fill="#F4EDE6"/>
<path d="M68.7098 42.105C68.6425 48.8457 63.1298 54.2544 56.3892 54.191C49.7438 54.123 44.3672 48.751 44.3038 42.105V41.473H68.7098V42.105ZM47.0438 53.0264C46.8772 53.7664 46.2225 54.295 45.4592 54.299H26.5205C25.7618 54.295 25.1072 53.7664 24.9405 53.0264L20.8412 34.2497C20.3305 31.9337 20.7372 29.5137 21.9738 27.4911H50.0105C51.2112 29.4597 51.6312 31.807 51.1838 34.069L50.5112 34.0284H50.4705C48.6785 34.0237 46.9585 34.737 45.6985 36.0057C45.6265 36.0777 45.5545 36.155 45.4818 36.2357L45.4145 36.313C45.3645 36.367 45.3192 36.421 45.2745 36.475L45.1978 36.5657C45.1572 36.6197 45.1165 36.6697 45.0845 36.719L45.0078 36.823C44.9718 36.8724 44.9358 36.9224 44.8952 36.9764L44.8232 37.0804C44.7865 37.1344 44.7552 37.1884 44.7192 37.247C44.6965 37.279 44.6785 37.3104 44.6558 37.3424C44.6198 37.405 44.5838 37.4684 44.5472 37.5364L44.5065 37.613C44.4572 37.703 44.4118 37.7937 44.3672 37.8884L44.3445 37.9384C44.3085 38.015 44.2765 38.0917 44.2405 38.173C44.2272 38.2044 44.2132 38.2357 44.1998 38.2724C44.1772 38.331 44.1498 38.3944 44.1318 38.457C44.1138 38.4937 44.1005 38.5337 44.0872 38.5744C44.0692 38.633 44.0512 38.6877 44.0285 38.755C44.0192 38.791 44.0058 38.8317 43.9918 38.8684C43.9738 38.931 43.9605 38.9857 43.9425 39.053C43.9332 39.089 43.9198 39.1297 43.9152 39.1664C43.8972 39.229 43.8838 39.297 43.8705 39.3604C43.8612 39.3964 43.8525 39.4324 43.8478 39.473C43.8298 39.5497 43.8205 39.6264 43.8072 39.703C43.8072 39.7257 43.7978 39.753 43.7938 39.7757C43.7798 39.875 43.7665 39.9744 43.7572 40.0737H43.6085C43.2198 40.0737 42.9132 40.385 42.9132 40.769V42.105C42.9132 42.2224 42.9132 42.3444 42.9178 42.4664C42.9178 42.507 42.9178 42.5477 42.9178 42.5884C42.9178 42.665 42.9178 42.7464 42.9265 42.823C42.9265 42.8724 42.9312 42.9224 42.9358 42.9677C42.9358 43.0397 42.9445 43.1117 42.9492 43.1844C42.9492 43.2337 42.9585 43.2837 42.9625 43.3377C42.9672 43.3917 42.9765 43.473 42.9812 43.541C42.9898 43.6084 42.9945 43.6444 43.0032 43.699C43.0078 43.753 43.0172 43.8297 43.0258 43.893C43.0352 43.9604 43.0398 44.001 43.0485 44.0557L43.0758 44.245C43.0845 44.3037 43.0938 44.3577 43.1072 44.4124C43.1165 44.4664 43.1252 44.5384 43.1392 44.597C43.1478 44.6604 43.1612 44.7057 43.1705 44.7644C43.1838 44.8184 43.1932 44.877 43.2065 44.945C43.2198 45.0124 43.2338 45.0577 43.2472 45.1117L43.2878 45.2924L43.3285 45.4597C43.3418 45.5184 43.3598 45.5724 43.3738 45.6357C43.3918 45.699 43.4052 45.753 43.4185 45.8024C43.4372 45.8524 43.4552 45.9197 43.4732 45.9744C43.4865 46.033 43.5045 46.087 43.5225 46.141C43.5405 46.1957 43.5585 46.2584 43.5765 46.313C43.5952 46.3717 43.6132 46.4257 43.6312 46.4797C43.6492 46.5337 43.6718 46.5924 43.6898 46.647C43.7078 46.701 43.7305 46.7597 43.7485 46.8137C43.7712 46.8684 43.7892 46.9224 43.8118 46.981L43.8745 47.1437C43.8972 47.1977 43.9198 47.2517 43.9425 47.3057C43.9652 47.3604 43.9878 47.4144 44.0105 47.4684C44.0325 47.523 44.0598 47.577 44.0825 47.631L44.1545 47.7937L44.2272 47.9517C44.2538 48.0057 44.2812 48.0597 44.3085 48.1097C44.3352 48.1637 44.3578 48.2177 44.3852 48.2677C44.4118 48.317 44.4392 48.3757 44.4665 48.4257L44.5472 48.579C44.5792 48.633 44.6058 48.683 44.6378 48.737L44.7192 48.8864L44.8138 49.0444L44.8998 49.1884C44.9312 49.243 44.9625 49.2924 44.9992 49.3464C45.0305 49.401 45.0578 49.4417 45.0892 49.4864L45.1932 49.6444L45.2878 49.7844C45.3192 49.8344 45.3558 49.8884 45.3918 49.9384C45.4278 49.9877 45.4552 50.0284 45.4912 50.0737C45.5178 50.1184 45.5632 50.173 45.6038 50.2224C45.6492 50.2724 45.6718 50.313 45.7078 50.3577C45.7392 50.3984 45.7798 50.457 45.8205 50.507C45.8612 50.5564 45.8885 50.5884 45.9245 50.633L46.0372 50.7824C46.0732 50.823 46.1052 50.8637 46.1412 50.8997C46.2272 50.999 46.3125 51.0984 46.3985 51.193L46.5065 51.3104C46.5432 51.351 46.5878 51.3964 46.6198 51.437C46.6558 51.4824 46.7052 51.527 46.7458 51.5724L46.8632 51.685L46.9945 51.8204L47.1165 51.9384C47.1612 51.9744 47.1978 52.015 47.2385 52.051L47.0438 53.0264ZM29.3692 23.1524H42.6105C45.0438 23.2251 47.3378 24.2904 48.9718 26.1004H23.0078C24.6378 24.2904 26.9358 23.2251 29.3692 23.1524ZM28.9585 19.0671C28.9585 18.4257 29.4772 17.9064 30.1185 17.9064H41.8658C42.5065 17.9064 43.0258 18.4257 43.0258 19.0671V20.6017C43.0258 21.2431 42.5065 21.7617 41.8658 21.7617H30.1185C29.4772 21.7617 28.9585 21.2431 28.9585 20.6017V19.0671ZM34.4478 10.3577H37.5358V16.5157H34.4478V10.3577ZM32.0692 8.43439C32.0692 8.14105 32.3085 7.90172 32.6018 7.90172H49.5678C49.8612 7.90172 50.1005 8.14105 50.1005 8.43439C50.1005 8.72839 49.8612 8.96772 49.5678 8.96772H32.6018C32.3085 8.96305 32.0692 8.72839 32.0692 8.43439ZM46.9625 11.7304V10.3577H49.0258V11.7304H46.9625ZM66.2358 34.6197L67.9018 34.0284V36.5657C67.8972 38.5024 66.3265 40.0737 64.3892 40.0777H45.1612L45.1705 40.019L45.1838 39.929C45.1932 39.875 45.2018 39.825 45.2112 39.7757C45.2158 39.7437 45.2198 39.7124 45.2245 39.685C45.2385 39.631 45.2472 39.5677 45.2652 39.5184C45.2698 39.4957 45.2745 39.473 45.2785 39.4457C45.2972 39.369 45.3192 39.2924 45.3465 39.2157L45.3558 39.1797C45.3738 39.1164 45.3965 39.053 45.4185 38.9857C45.4278 38.963 45.4372 38.9357 45.4458 38.909C45.4685 38.859 45.4865 38.8097 45.5045 38.7597L45.5405 38.6737C45.5632 38.629 45.5812 38.579 45.6038 38.5337L45.6445 38.453C45.6672 38.403 45.6898 38.3537 45.7165 38.3037C45.7305 38.281 45.7392 38.2584 45.7532 38.2357C45.7938 38.1684 45.8298 38.0964 45.8658 38.0284C45.8705 38.019 45.8745 38.015 45.8792 38.0057C45.9198 37.9424 45.9558 37.8837 45.9965 37.8204L46.0418 37.753C46.0732 37.7077 46.1052 37.6624 46.1365 37.6224L46.1952 37.545C46.2225 37.5044 46.2538 37.4637 46.2898 37.4237L46.3485 37.351C46.3805 37.3104 46.4212 37.2657 46.4572 37.225C46.4752 37.2064 46.4932 37.1844 46.5112 37.1664C46.5658 37.107 46.6245 37.0444 46.6785 36.9857C46.8678 36.8004 47.0665 36.629 47.2785 36.471C48.1905 35.789 49.3058 35.419 50.4438 35.419L51.6898 35.4957L57.5858 35.8524C60.5252 36.0284 63.4685 35.613 66.2358 34.6197ZM69.4052 40.0777H67.8025C68.7552 39.157 69.2925 37.8884 69.2878 36.5657V33.0444C69.2925 32.6604 68.9812 32.349 68.5972 32.349C68.5205 32.349 68.4392 32.3624 68.3625 32.3897L65.7752 33.315C63.1752 34.2404 60.4165 34.633 57.6672 34.4617L52.5698 34.155C53.1025 31.1884 52.3485 28.1277 50.4845 25.7531C48.8998 23.7124 46.5972 22.3351 44.0465 21.9064C44.2812 21.5091 44.4072 21.0624 44.4072 20.6064V19.0671C44.4072 17.6584 43.2652 16.5157 41.8565 16.5157H38.9265V10.3577H45.5765V12.4257C45.5765 12.8097 45.8838 13.1211 46.2678 13.1211H49.7165C50.1005 13.1211 50.4118 12.8097 50.4118 12.4257V10.1551C51.3645 9.68972 51.7572 8.53839 51.2878 7.58572C50.9672 6.92705 50.2992 6.51172 49.5678 6.51172H32.6018C31.5405 6.51172 30.6785 7.36905 30.6785 8.43439C30.6785 9.49572 31.5405 10.3577 32.6018 10.3577H33.0578V16.5157H30.1185C28.7098 16.5157 27.5678 17.6584 27.5678 19.0671V20.6017C27.5678 21.0577 27.6898 21.5091 27.9245 21.9017C25.3738 22.3351 23.0758 23.7077 21.4865 25.7531C21.3238 25.9651 21.1705 26.1817 21.0258 26.4031V26.4124C19.4278 28.8004 18.8772 31.7397 19.4958 34.5477L23.5812 53.3244C23.8885 54.701 25.1118 55.685 26.5205 55.6944H45.4592C46.8725 55.685 48.0958 54.701 48.4032 53.3244L48.4618 53.053C54.5112 57.5004 63.0172 56.1957 67.4638 50.1457C69.1752 47.8164 70.1005 44.999 70.1005 42.105V40.773C70.1005 40.3897 69.7892 40.0777 69.4052 40.0777Z" fill="#A5836A"/>
<path d="M39.5218 45.2197C38.7632 46.4384 37.4272 47.1744 35.9912 47.1611C33.6531 47.1657 31.7611 45.2737 31.7611 42.9351C31.7565 42.3077 31.8965 41.6844 32.1678 41.1204L35.9105 33.2424L39.7298 40.6324C40.4565 42.1631 40.3752 43.8831 39.5218 45.2197ZM40.9805 40.0004L36.4745 31.3051C36.2938 30.9671 35.8738 30.8357 35.5352 31.0117C35.3772 31.0977 35.2558 31.2377 35.2012 31.4091L35.1018 31.7117L30.9171 40.5197C29.5805 43.3144 30.7591 46.6644 33.5538 48.0004C36.1092 49.2244 39.1698 48.3531 40.7005 45.9644C41.8112 44.2171 41.9192 41.9964 40.9985 40.0231L40.9805 40.0004Z" fill="#A5836A"/>
</svg>
