<svg width="77" height="64" viewBox="0 0 77 64" fill="none" xmlns="http://www.w3.org/2000/svg">
<circle cx="24" cy="23.5" r="23.5" fill="#F4EDE6"/>
<path d="M55.9221 50.8467C55.9221 50.9014 55.9174 50.956 55.9067 51.0094C55.8961 51.0634 55.8807 51.1154 55.8601 51.166C55.8394 51.2167 55.8147 51.2647 55.7847 51.31C55.7547 51.3554 55.7207 51.398 55.6827 51.4367C55.6454 51.4754 55.6041 51.51 55.5594 51.54C55.5147 51.5707 55.4674 51.596 55.4181 51.6174C55.3687 51.638 55.3174 51.654 55.2647 51.6647C55.2121 51.6754 55.1587 51.6807 55.1054 51.6807C55.0514 51.6807 54.9987 51.6754 54.9461 51.6647C54.8934 51.654 54.8421 51.638 54.7927 51.6174C54.7427 51.596 54.6961 51.5707 54.6514 51.54C54.6068 51.51 54.5654 51.4754 54.5274 51.4367C54.4894 51.398 54.4561 51.3554 54.4261 51.31C54.3961 51.2647 54.3708 51.2167 54.3508 51.166C54.3301 51.1154 54.3141 51.0634 54.3041 51.0094C54.2934 50.956 54.2881 50.9014 54.2881 50.8467C54.2881 50.792 54.2934 50.738 54.3041 50.684C54.3141 50.63 54.3301 50.578 54.3508 50.5274C54.3708 50.4767 54.3961 50.4287 54.4261 50.3834C54.4561 50.338 54.4894 50.2954 54.5274 50.2567C54.5654 50.218 54.6068 50.1834 54.6514 50.1534C54.6961 50.1227 54.7427 50.0974 54.7927 50.076C54.8421 50.0554 54.8934 50.0394 54.9461 50.0287C54.9987 50.018 55.0514 50.0127 55.1054 50.0127C55.1587 50.0127 55.2121 50.018 55.2647 50.0287C55.3174 50.0394 55.3687 50.0554 55.4181 50.076C55.4674 50.0974 55.5147 50.1227 55.5594 50.1534C55.6041 50.1834 55.6454 50.218 55.6827 50.2567C55.7207 50.2954 55.7547 50.338 55.7847 50.3834C55.8147 50.4287 55.8394 50.4767 55.8601 50.5274C55.8807 50.578 55.8961 50.63 55.9067 50.684C55.9174 50.738 55.9221 50.792 55.9221 50.8467Z" fill="#A5836A"/>
<path d="M69.5236 29.8103L62.4342 23.5349V12.4776C62.4342 12.0409 62.0802 11.6869 61.6436 11.6869C61.2069 11.6869 60.8522 12.0409 60.8522 12.4776V22.1349L56.1002 17.9283V13.2689H56.9436C57.3802 13.2689 57.7349 12.9149 57.7349 12.4776C57.7349 12.0409 57.3802 11.6869 56.9436 11.6869H55.3089C54.8722 11.6869 54.5182 12.0409 54.5182 12.4776V16.5283L45.7609 8.77626C45.1182 8.20692 44.1116 8.20892 43.4702 8.78092L19.4329 30.2376C19.1076 30.5289 19.0789 31.0289 19.3696 31.3549C19.5262 31.5296 19.7429 31.6189 19.9602 31.6189C20.1476 31.6189 20.3362 31.5523 20.4869 31.4183L24.8902 27.4876V51.2643C24.8902 51.7009 25.2442 52.0549 25.6809 52.0549C26.1176 52.0549 26.4722 51.7009 26.4722 51.2643V26.0756L44.5242 9.96092C44.5662 9.92292 44.6696 9.92292 44.7122 9.96092L62.4996 25.7049C62.4936 25.7443 62.4876 25.7836 62.4876 25.8236V51.2643C62.4876 51.7009 62.8416 52.0549 63.2782 52.0549C63.7149 52.0549 64.0696 51.7009 64.0696 51.2643V27.0949L68.4756 30.9949C68.8022 31.2849 69.3022 31.2543 69.5922 30.9263C69.8816 30.5996 69.8509 30.0996 69.5236 29.8103Z" fill="#A5836A"/>
<path d="M60.0094 12.4776C60.0094 12.5322 60.004 12.5869 59.9934 12.6402C59.9834 12.6942 59.9674 12.7462 59.9467 12.7969C59.9267 12.8476 59.9014 12.8956 59.8714 12.9409C59.8414 12.9869 59.808 13.0289 59.77 13.0676C59.732 13.1062 59.6907 13.1409 59.646 13.1709C59.6014 13.2016 59.554 13.2276 59.5047 13.2482C59.4547 13.2689 59.404 13.2849 59.3514 13.2956C59.2987 13.3062 59.2454 13.3116 59.192 13.3116C59.138 13.3116 59.0847 13.3062 59.032 13.2956C58.9794 13.2849 58.9287 13.2689 58.8787 13.2482C58.8294 13.2276 58.782 13.2016 58.7374 13.1709C58.6927 13.1409 58.6514 13.1062 58.614 13.0676C58.576 13.0289 58.542 12.9869 58.512 12.9409C58.482 12.8956 58.4574 12.8476 58.4367 12.7969C58.416 12.7462 58.4007 12.6942 58.39 12.6402C58.3794 12.5869 58.374 12.5322 58.374 12.4776C58.374 12.4229 58.3794 12.3689 58.39 12.3149C58.4007 12.2616 58.416 12.2089 58.4367 12.1582C58.4574 12.1076 58.482 12.0596 58.512 12.0142C58.542 11.9689 58.576 11.9269 58.614 11.8876C58.6514 11.8489 58.6927 11.8149 58.7374 11.7842C58.782 11.7536 58.8294 11.7282 58.8787 11.7069C58.9287 11.6862 58.9794 11.6702 59.032 11.6596C59.0847 11.6489 59.138 11.6436 59.192 11.6436C59.2454 11.6436 59.2987 11.6489 59.3514 11.6596C59.404 11.6702 59.4547 11.6862 59.5047 11.7069C59.554 11.7282 59.6014 11.7536 59.646 11.7842C59.6907 11.8149 59.732 11.8489 59.77 11.8876C59.808 11.9269 59.8414 11.9689 59.8714 12.0142C59.9014 12.0596 59.9267 12.1076 59.9467 12.1582C59.9674 12.2089 59.9834 12.2616 59.9934 12.3149C60.004 12.3689 60.0094 12.4229 60.0094 12.4776Z" fill="#A5836A"/>
<path d="M45.5048 20.0273C35.9408 20.0273 28.1602 28.0533 28.1602 37.918C28.1602 47.7827 35.9408 55.808 45.5048 55.808C45.7588 55.808 46.0115 55.8013 46.2628 55.79C46.4808 55.7807 46.6855 55.682 46.8275 55.5167C46.9701 55.3513 47.0381 55.134 47.0148 54.9173C46.9195 54.0153 46.6741 53.1247 46.3048 52.3427C45.9141 51.5167 45.2435 50.7113 44.3115 49.9487C44.1575 49.8227 43.9615 49.7567 43.7621 49.7713C42.9541 49.82 42.1262 49.7913 41.3155 49.6867C39.2228 49.4147 38.5588 48.9847 38.3708 48.6713C38.2242 48.4273 38.3735 48.144 38.4975 47.9267C38.6982 47.5753 38.9728 47.094 38.8302 46.5407C38.8155 46.484 38.6908 46.0307 38.3555 45.7387C38.3588 45.7333 38.3622 45.728 38.3655 45.724C38.5462 45.5153 38.6335 45.2533 38.6108 44.9807C38.5702 44.482 38.1735 44.15 38.0528 44.06C38.0495 44.058 38.0462 44.0553 38.0435 44.0527C38.0562 44.036 38.0695 44.02 38.0828 44.006C38.5748 43.6193 38.9428 42.854 38.7308 42.1813C38.5942 41.7493 38.3302 41.406 38.0208 41.0833C37.9068 40.9653 37.8088 40.8633 37.7215 40.738C37.7422 40.7287 37.7662 40.7187 37.7948 40.708C38.3102 40.522 38.7948 40.2893 39.2348 40.018C41.3648 38.702 41.4948 36.5353 41.6088 34.624C41.6455 34.0107 41.6808 33.426 41.7728 32.8713C42.3341 36.328 44.1821 39.57 47.1895 42.3393C47.6681 42.7807 48.1948 43.182 48.7035 43.57C49.7288 44.352 50.6968 45.0907 51.2728 46.1047L51.3015 46.154C51.3608 46.2553 51.5008 46.49 51.6001 46.7647C51.7128 47.0793 52.0368 47.2887 52.3708 47.2887C52.7628 47.2887 53.0961 47.0013 53.1535 46.6133C53.2261 46.118 53.2688 45.57 53.0875 44.914C52.5595 42.9893 51.0248 41.4813 49.7728 40.2493C46.3735 36.9067 45.9435 33.344 45.9501 31.716C46.9781 33.0187 48.5815 33.8807 49.9695 34.6233C50.3215 34.8113 50.6621 34.9933 50.9768 35.1747C53.7775 36.788 56.6728 38.456 56.5815 41.9893C56.5375 43.6227 55.6788 45.292 55.1708 46.1413C54.9468 46.5167 55.0688 47.002 55.4435 47.2267C55.5708 47.3027 55.7108 47.3387 55.8488 47.3387C56.1181 47.3387 56.3801 47.2013 56.5288 46.9533C57.1161 45.9707 58.1095 44.0253 58.1621 42.0307C58.2795 37.556 54.6681 35.4753 51.7661 33.804C51.4381 33.6153 51.0828 33.4247 50.7155 33.228C49.0628 32.344 46.7908 30.974 46.4821 29.6093C46.3941 29.2207 46.5048 28.9193 46.7128 28.596C47.1255 27.958 47.6368 27.51 48.0148 27.2367C49.0421 26.5893 50.0501 26.288 51.1848 26.288C52.2741 26.288 53.3628 26.5767 54.3235 26.8313C55.6868 27.1933 57.5141 28.406 59.4668 30.2473C59.7495 30.5133 60.1821 30.5353 60.4901 30.3C60.7981 30.0647 60.8895 29.6407 60.7075 29.2993C57.6528 23.58 51.8275 20.0273 45.5048 20.0273ZM54.7288 25.3027C53.6748 25.0227 52.4801 24.706 51.1848 24.706C49.7495 24.706 48.4288 25.1007 47.1481 25.9127C47.1355 25.9207 47.1228 25.9293 47.1108 25.938C46.1775 26.6073 44.5948 28.1007 44.4388 30.604C44.3541 31.1933 43.7421 36.538 48.6835 41.3967C48.9195 41.6287 49.1621 41.8673 49.4021 42.1133C48.9961 41.802 48.6115 41.4993 48.2608 41.176C44.9821 38.156 43.2715 34.706 43.1761 30.924C43.1695 30.64 43.1835 29.9807 43.2841 29.5147C43.3581 29.1713 43.1961 28.82 42.8875 28.6527C42.5781 28.486 42.1962 28.5427 41.9488 28.7913C41.4982 29.246 41.0595 30.0933 40.9355 30.3427C40.6468 30.924 40.4282 31.5587 40.2848 32.228C40.1222 32.9907 40.0755 33.7733 40.0302 34.5293C39.9255 36.278 39.8348 37.788 38.4042 38.672C38.0562 38.886 37.6702 39.0713 37.2568 39.2207C36.5328 39.4827 36.2568 39.9253 36.1528 40.2507C36.0528 40.5633 36.0188 41.0587 36.4248 41.6433C36.5815 41.8687 36.7468 42.0413 36.8795 42.18C37.0575 42.3647 37.1482 42.4627 37.2042 42.6067C37.1868 42.6587 37.1402 42.7347 37.1082 42.76C37.0822 42.7787 37.0568 42.7987 37.0335 42.8207C36.9128 42.93 36.3175 43.5153 36.4028 44.28C36.4262 44.4893 36.5215 44.846 36.8762 45.16C36.7695 45.3993 36.6862 45.7113 36.7422 46.0507C36.7968 46.3827 36.9775 46.6773 37.2582 46.8933C37.2222 46.9707 37.1635 47.0727 37.1235 47.142C37.0422 47.2853 36.9575 47.434 36.8968 47.5953C36.5728 48.4573 36.7822 49.0993 37.0148 49.486C37.7295 50.6753 39.5802 51.056 41.1122 51.2553C41.9155 51.3593 42.7348 51.3973 43.5381 51.366C44.1601 51.912 44.6195 52.4793 44.8748 53.0187C45.0515 53.3933 45.1928 53.8007 45.2948 54.2247C36.6995 54.108 29.7422 46.838 29.7422 37.918C29.7422 28.9253 36.8135 21.6093 45.5048 21.6093C49.4615 21.6093 53.2061 23.1467 56.0608 25.8073C55.6148 25.5927 55.1681 25.4187 54.7288 25.3027Z" fill="#A5836A"/>
</svg>
