<svg width="77" height="64" viewBox="0 0 77 64" fill="none" xmlns="http://www.w3.org/2000/svg">
<circle cx="24" cy="23.5" r="23.5" fill="#F4EDE6"/>
<path d="M45.7902 49.5774C45.7535 50.1594 45.2948 50.618 44.7402 50.618H37.1082C36.5535 50.618 36.0949 50.1594 36.0582 49.5774L33.9495 15.8094H47.8995L45.7902 49.5774ZM43.5129 56.2907H38.3355C37.7402 56.2907 37.2535 55.782 37.2535 55.15V51.9H44.5902V55.15C44.5948 55.782 44.1082 56.2907 43.5129 56.2907ZM33.9082 12.1094H47.9402V14.5274H33.9082V12.1094ZM49.2175 11.4727C49.2175 11.118 48.9308 10.832 48.5808 10.832H33.2675C32.9129 10.832 32.6309 11.118 32.6309 11.4727V15.168C32.6309 15.1727 32.6355 15.182 32.6355 15.1867C32.6355 15.1954 32.6309 15.2 32.6309 15.2094L34.7809 49.6547C34.8309 50.4907 35.3082 51.2 35.9769 51.5867V55.15C35.9769 56.4867 37.0309 57.5727 38.3355 57.5727H43.5129C44.8128 57.5727 45.8722 56.4867 45.8722 55.15V51.5867C46.5448 51.2 47.0128 50.4907 47.0675 49.6547L49.2175 15.2094C49.2175 15.2 49.2175 15.1954 49.2175 15.1867C49.2175 15.182 49.2175 15.1727 49.2175 15.168V11.4727Z" fill="#A5836A"/>
<path d="M29.5267 56.3222H20.24V36.0362H24.2447V49.0629C24.2447 49.4176 24.5267 49.7042 24.8807 49.7042C25.2353 49.7042 25.522 49.4176 25.522 49.0629V36.0362H29.5267V56.3222ZM22.0447 25.0176C22.0447 24.6042 22.3807 24.2676 22.79 24.2676H26.972C27.3807 24.2676 27.7173 24.6042 27.7173 25.0176V34.7589H22.0447V25.0176ZM26.972 22.9902H22.79C21.6767 22.9902 20.7673 23.8996 20.7673 25.0176V34.7589H19.5993C19.2447 34.7589 18.958 35.0449 18.958 35.3996V56.9629C18.958 57.3129 19.2447 57.5996 19.5993 57.5996H30.1673C30.5173 57.5996 30.8033 57.3129 30.8033 56.9629V35.3996C30.8033 35.0449 30.5173 34.7589 30.1673 34.7589H28.9947V25.0176C28.9947 23.8996 28.0853 22.9902 26.972 22.9902Z" fill="#A5836A"/>
<path d="M60.9082 48.3904C57.9856 48.3904 55.6129 44.6864 55.6129 40.1318C55.6129 35.5771 57.9856 31.8678 60.9082 31.8678C63.8269 31.8678 66.2036 35.5771 66.2036 40.1318C66.2036 44.6864 63.8269 48.3904 60.9082 48.3904ZM60.9082 30.7178C57.3536 30.7178 54.4629 34.9404 54.4629 40.1318C54.4629 45.3224 57.3536 49.5451 60.9082 49.5451C64.4629 49.5451 67.3582 45.3224 67.3582 40.1318C67.3582 34.9404 64.4629 30.7178 60.9082 30.7178Z" fill="#A5836A"/>
<path d="M65.4351 18.3457V22.3551H56.3805V18.3457C56.3805 17.5097 57.0625 16.8324 57.8945 16.8324H63.9218C64.7531 16.8324 65.4351 17.5097 65.4351 18.3457ZM68.9031 26.2051V54.9457C68.9031 55.7411 68.2578 56.3871 67.4671 56.3871H54.3491C53.5531 56.3871 52.9078 55.7411 52.9078 54.9457V26.2051C52.9078 24.7137 54.1218 23.5051 55.6078 23.5051H66.2031C67.6945 23.5051 68.9031 24.7137 68.9031 26.2051ZM59.6265 7.55039H62.2398C63.1125 7.55039 63.8171 8.21372 63.8171 9.03239V15.6824H58.0445V9.03239C58.0445 8.21372 58.7531 7.55039 59.6265 7.55039ZM62.2398 6.40039H59.6265C58.1171 6.40039 56.8898 7.58239 56.8898 9.03239V15.8824C55.9218 16.2777 55.2305 17.2277 55.2305 18.3411V22.3684C53.2851 22.5597 51.7578 24.2051 51.7578 26.2051V54.9457C51.7578 56.3777 52.9171 57.5371 54.3491 57.5371H67.4671C68.8945 57.5371 70.0578 56.3777 70.0578 54.9457V26.2051C70.0578 24.2051 68.5305 22.5637 66.5851 22.3684V18.3457C66.5851 17.2504 65.9171 16.3051 64.9718 15.8957V9.03239C64.9718 7.58239 63.7445 6.40039 62.2398 6.40039Z" fill="#A5836A"/>
</svg>
